<mxfile host="app.diagrams.net" agent="Mozilla/5.0 (Macintosh; Intel Mac OS X 10_15_7) AppleWebKit/537.36 (KHTML, like Gecko) Chrome/135.0.0.0 Safari/537.36" version="26.2.13">
  <diagram name="Page-1" id="I6y7_8z3vy66t240Q-PX">
    <mxGraphModel dx="1030" dy="824" grid="1" gridSize="10" guides="1" tooltips="1" connect="1" arrows="1" fold="1" page="1" pageScale="1" pageWidth="850" pageHeight="1100" math="0" shadow="0">
      <root>
        <mxCell id="0" />
        <mxCell id="1" parent="0" />
        <mxCell id="6wU86rSJ2iHSWhd7QMuM-1" value="AWS Account" style="points=[[0,0],[0.25,0],[0.5,0],[0.75,0],[1,0],[1,0.25],[1,0.5],[1,0.75],[1,1],[0.75,1],[0.5,1],[0.25,1],[0,1],[0,0.75],[0,0.5],[0,0.25]];outlineConnect=0;gradientColor=none;html=1;whiteSpace=wrap;fontSize=12;fontStyle=0;container=1;pointerEvents=0;collapsible=0;recursiveResize=0;shape=mxgraph.aws4.group;grIcon=mxgraph.aws4.group_account;strokeColor=#CD2264;fillColor=none;verticalAlign=top;align=left;spacingLeft=30;fontColor=#CD2264;dashed=0;" parent="1" vertex="1">
          <mxGeometry x="40" y="40" width="840" height="800" as="geometry" />
        </mxCell>
        <mxCell id="6wU86rSJ2iHSWhd7QMuM-26" value="VPC" style="sketch=0;outlineConnect=0;gradientColor=none;html=1;whiteSpace=wrap;fontSize=12;fontStyle=0;shape=mxgraph.aws4.group;grIcon=mxgraph.aws4.group_vpc;strokeColor=#B6BABF;fillColor=none;verticalAlign=top;align=left;spacingLeft=30;fontColor=#B6BABF;dashed=0;" parent="6wU86rSJ2iHSWhd7QMuM-1" vertex="1">
          <mxGeometry x="40" y="50" width="760" height="640" as="geometry" />
        </mxCell>
        <mxCell id="6wU86rSJ2iHSWhd7QMuM-2" value="Public subnet" style="points=[[0,0],[0.25,0],[0.5,0],[0.75,0],[1,0],[1,0.25],[1,0.5],[1,0.75],[1,1],[0.75,1],[0.5,1],[0.25,1],[0,1],[0,0.75],[0,0.5],[0,0.25]];outlineConnect=0;gradientColor=none;html=1;whiteSpace=wrap;fontSize=12;fontStyle=0;container=1;pointerEvents=0;collapsible=0;recursiveResize=0;shape=mxgraph.aws4.group;grIcon=mxgraph.aws4.group_security_group;grStroke=0;strokeColor=#7AA116;fillColor=#F2F6E8;verticalAlign=top;align=left;spacingLeft=30;fontColor=#248814;dashed=0;" parent="6wU86rSJ2iHSWhd7QMuM-1" vertex="1">
          <mxGeometry x="80" y="90" width="400" height="580" as="geometry" />
        </mxCell>
        <mxCell id="6wU86rSJ2iHSWhd7QMuM-7" value="" style="rounded=0;whiteSpace=wrap;html=1;" parent="6wU86rSJ2iHSWhd7QMuM-2" vertex="1">
          <mxGeometry x="40" y="40" width="330" height="200" as="geometry" />
        </mxCell>
        <mxCell id="6wU86rSJ2iHSWhd7QMuM-4" value="&amp;nbsp; &amp;nbsp; &amp;nbsp;Headscale&lt;div&gt;&amp;nbsp; &amp;nbsp; &amp;nbsp; &amp;nbsp; &amp;nbsp; Control Plane&lt;/div&gt;" style="sketch=0;points=[[0,0,0],[0.25,0,0],[0.5,0,0],[0.75,0,0],[1,0,0],[0,1,0],[0.25,1,0],[0.5,1,0],[0.75,1,0],[1,1,0],[0,0.25,0],[0,0.5,0],[0,0.75,0],[1,0.25,0],[1,0.5,0],[1,0.75,0]];outlineConnect=0;fontColor=#232F3E;fillColor=#ED7100;strokeColor=#ffffff;dashed=0;verticalLabelPosition=bottom;verticalAlign=top;align=center;html=1;fontSize=12;fontStyle=0;aspect=fixed;shape=mxgraph.aws4.resourceIcon;resIcon=mxgraph.aws4.ec2;" parent="6wU86rSJ2iHSWhd7QMuM-2" vertex="1">
          <mxGeometry x="40" y="40" width="50" height="50" as="geometry" />
        </mxCell>
        <mxCell id="6wU86rSJ2iHSWhd7QMuM-11" style="edgeStyle=orthogonalEdgeStyle;rounded=0;orthogonalLoop=1;jettySize=auto;html=1;entryX=0;entryY=0.5;entryDx=0;entryDy=0;" parent="6wU86rSJ2iHSWhd7QMuM-2" source="6wU86rSJ2iHSWhd7QMuM-8" target="6wU86rSJ2iHSWhd7QMuM-10" edge="1">
          <mxGeometry relative="1" as="geometry">
            <Array as="points">
              <mxPoint x="170" y="72" />
            </Array>
          </mxGeometry>
        </mxCell>
        <mxCell id="6wU86rSJ2iHSWhd7QMuM-13" style="edgeStyle=orthogonalEdgeStyle;rounded=0;orthogonalLoop=1;jettySize=auto;html=1;entryX=0;entryY=0.5;entryDx=0;entryDy=0;" parent="6wU86rSJ2iHSWhd7QMuM-2" target="6wU86rSJ2iHSWhd7QMuM-12" edge="1">
          <mxGeometry relative="1" as="geometry">
            <mxPoint x="170" y="180" as="sourcePoint" />
            <Array as="points">
              <mxPoint x="170" y="200" />
            </Array>
          </mxGeometry>
        </mxCell>
        <mxCell id="6wU86rSJ2iHSWhd7QMuM-15" value="/admin&lt;div&gt;route&lt;/div&gt;" style="edgeLabel;html=1;align=center;verticalAlign=middle;resizable=0;points=[];" parent="6wU86rSJ2iHSWhd7QMuM-13" vertex="1" connectable="0">
          <mxGeometry x="0.0756" y="-1" relative="1" as="geometry">
            <mxPoint x="1" as="offset" />
          </mxGeometry>
        </mxCell>
        <mxCell id="6wU86rSJ2iHSWhd7QMuM-8" value="Caddy" style="shape=image;verticalLabelPosition=bottom;labelBackgroundColor=default;verticalAlign=top;aspect=fixed;imageAspect=0;image=https://static-00.iconduck.com/assets.00/caddy-icon-2048x2048-gm0mveh9.png;" parent="6wU86rSJ2iHSWhd7QMuM-2" vertex="1">
          <mxGeometry x="145" y="110" width="50" height="50" as="geometry" />
        </mxCell>
        <mxCell id="6wU86rSJ2iHSWhd7QMuM-10" value="Headscale server" style="shape=image;verticalLabelPosition=bottom;labelBackgroundColor=default;verticalAlign=top;aspect=fixed;imageAspect=0;image=https://www.myqnap.org/wp-content/uploads/headscale-logo.png;clipPath=inset(33.56% 1.56% 33.56% 2.44%);" parent="6wU86rSJ2iHSWhd7QMuM-2" vertex="1">
          <mxGeometry x="241.5" y="54.02999999999997" width="105" height="35.97222222222222" as="geometry" />
        </mxCell>
        <mxCell id="6wU86rSJ2iHSWhd7QMuM-12" value="Headscale&lt;div&gt;Admin&lt;/div&gt;" style="rounded=0;whiteSpace=wrap;html=1;fillColor=#99CCFF;" parent="6wU86rSJ2iHSWhd7QMuM-2" vertex="1">
          <mxGeometry x="240" y="175" width="108" height="50" as="geometry" />
        </mxCell>
        <mxCell id="6wU86rSJ2iHSWhd7QMuM-3" value="Private subnet" style="points=[[0,0],[0.25,0],[0.5,0],[0.75,0],[1,0],[1,0.25],[1,0.5],[1,0.75],[1,1],[0.75,1],[0.5,1],[0.25,1],[0,1],[0,0.75],[0,0.5],[0,0.25]];outlineConnect=0;gradientColor=none;html=1;whiteSpace=wrap;fontSize=12;fontStyle=0;container=1;pointerEvents=0;collapsible=0;recursiveResize=0;shape=mxgraph.aws4.group;grIcon=mxgraph.aws4.group_security_group;grStroke=0;strokeColor=#00A4A6;fillColor=#E6F6F7;verticalAlign=top;align=left;spacingLeft=30;fontColor=#147EBA;dashed=0;" parent="6wU86rSJ2iHSWhd7QMuM-1" vertex="1">
          <mxGeometry x="520" y="90" width="240" height="240" as="geometry" />
        </mxCell>
        <mxCell id="6wU86rSJ2iHSWhd7QMuM-16" value="" style="rounded=0;whiteSpace=wrap;html=1;" parent="6wU86rSJ2iHSWhd7QMuM-1" vertex="1">
          <mxGeometry x="120" y="350" width="330" height="140" as="geometry" />
        </mxCell>
        <mxCell id="6wU86rSJ2iHSWhd7QMuM-17" value="&amp;nbsp; &amp;nbsp; &amp;nbsp;Headscale&lt;div&gt;&amp;nbsp; &amp;nbsp; &amp;nbsp; &amp;nbsp; &amp;nbsp; &amp;nbsp;Subnet Router&lt;/div&gt;" style="sketch=0;points=[[0,0,0],[0.25,0,0],[0.5,0,0],[0.75,0,0],[1,0,0],[0,1,0],[0.25,1,0],[0.5,1,0],[0.75,1,0],[1,1,0],[0,0.25,0],[0,0.5,0],[0,0.75,0],[1,0.25,0],[1,0.5,0],[1,0.75,0]];outlineConnect=0;fontColor=#232F3E;fillColor=#ED7100;strokeColor=#ffffff;dashed=0;verticalLabelPosition=bottom;verticalAlign=top;align=center;html=1;fontSize=12;fontStyle=0;aspect=fixed;shape=mxgraph.aws4.resourceIcon;resIcon=mxgraph.aws4.ec2;" parent="6wU86rSJ2iHSWhd7QMuM-1" vertex="1">
          <mxGeometry x="120" y="350" width="50" height="50" as="geometry" />
        </mxCell>
        <mxCell id="6wU86rSJ2iHSWhd7QMuM-24" style="edgeStyle=orthogonalEdgeStyle;rounded=0;orthogonalLoop=1;jettySize=auto;html=1;entryX=1;entryY=0.5;entryDx=0;entryDy=0;" parent="6wU86rSJ2iHSWhd7QMuM-1" source="6wU86rSJ2iHSWhd7QMuM-23" target="6wU86rSJ2iHSWhd7QMuM-10" edge="1">
          <mxGeometry relative="1" as="geometry">
            <Array as="points">
              <mxPoint x="470" y="420" />
              <mxPoint x="470" y="162" />
            </Array>
          </mxGeometry>
        </mxCell>
        <mxCell id="6wU86rSJ2iHSWhd7QMuM-25" value="Connected&amp;nbsp;&lt;span style=&quot;background-color: light-dark(#ffffff, var(--ge-dark-color, #121212)); color: light-dark(rgb(0, 0, 0), rgb(255, 255, 255));&quot;&gt;to&lt;/span&gt;&lt;div&gt;Headscale&lt;/div&gt;&lt;div&gt;server&lt;/div&gt;" style="edgeLabel;html=1;align=center;verticalAlign=middle;resizable=0;points=[];" parent="6wU86rSJ2iHSWhd7QMuM-24" vertex="1" connectable="0">
          <mxGeometry x="-0.6837" y="1" relative="1" as="geometry">
            <mxPoint x="-15" y="1" as="offset" />
          </mxGeometry>
        </mxCell>
        <mxCell id="6wU86rSJ2iHSWhd7QMuM-23" value="Tailscale&#xa;Client" style="shape=image;verticalLabelPosition=bottom;labelBackgroundColor=default;verticalAlign=top;aspect=fixed;imageAspect=0;image=data:image/png,iVBORw0KGgoAAAANSUhEUgAAAwAAAAMACAYAAACTgQCOAABDgElEQVR42u3db2hl530v+t/a6iihEltbJp25dbZmtgXBRmZuZJeCQttEwQf5OG/qwAzJ4R6o65By3pSMcSA5PeA/hXJ7IcXjVz63wZP4QKHBU+K8iWuRknGaEF2KmUmGiA6046WZbXJmiqOtXavYEtrrvpDGmX+a0Z/9b639+cCQeKzRaP/W1896fms9z1pJAG1Rq9VqN//WDf+0sVG75Q8lyS2/14oYK0VUtvt7stv8mVu/KKvEHb7Hbj6WIwu5le77OyTJTr9HI8myxjb/bmmbcerm792IoaHGLb+3+WvzA6Vp6rDC/iVKwIBO1q9NkDd/bWz8esK8NcG+fiL+4aT71om1CTJAb/y6ObixUWkkWdZoRTRKESs3NBtDQ+lNf7aRpmlDKdEAQH4n87UPr7InSe3aBD5Lktp1E/ebJ/AAsNkQbDUSSZal1zUQjciydOvuRCM2b0RoGtAAQEcn9hsb0xFR2boyfyRLkkpkWe3DST8AdF96fcMQEUtbjUKqUUADADuZ4G9esT+SbF6tr21N7CuqBECONa41ClmWpaWIpSiVzsXm0qNzyoMGgCJP9Gu3meRPh6v3AAy2a83Bueuag3PuHKABIE8T/UpETEerNR0Rn8wirk3yK6oDADvWiCQ5pzFAA0C/T/ZnwxV9AOikc5EkaZJlb2oK0ADQjQl/LTY2ZltJ8slkc7I/rSoA0PumIIs4V8qyN2No6Ix3JaABYH8T/lbr8di8uv94WMYDAHmQRpKcS1qt72kI0ABwtwl/JTY2Ht+6wv94WM4DAIVoCLKIM6Usu9YQNJQEDcBgT/pr0Wo9niXJH0aWzaoIABR95pecSbLse1EqnfEoUg0AgzPpn221Wp9JIp4IV/kBYJClWcRrpVLpe2manlEODQDFnPSfCGv5AYDbNwNnSqXSi+4MaADI76S/0mq1vpIkyazlPQDAbpqBJMuet4lYA0B+Jv6zWZY9a9IPAOx/ppicSVqtV9LLl7+tGBoA+mvSv3m13xIfAKAzri0Ret5dAQ0AvZ34u9oPAHRVFvHtUqn0io3DGgBM/AGAwXIuybIXLQ/SANDJif/ExBNZkjwbHt8JAPSPNMmy5zUCGgDaNem3vh8A0AigARiQyb8r/gCARgANwABM/Gu12azV+paJPwCgEUADUPSJv829AEDRGoFS6Y89NUgDwI0T/1qWZd8y8QcAimrr8aHeI6ABGPiJf6XVaj27tcEXAEAjQMcNKUHPJv9fyVqt15KIWdUAAAZFEjEdWfb4eLm80mg2z6lIT44BXZ74W+cPALApTUqlz7oboAEo6sTfch8AgNuwLKi7LAHqxuR/YuLxLOKHlvsAANzKsqCu15uOTfw93QcAYFfcDeg8dwA6N/n/StZq/W1EPKAaAAA7s3U34InxsbEPGisrCyrSkRrT5om/q/4AAG2ZqSZnkiT5Y3cD2ssdgPZO/l31BwBo4/TK3YAO9FVK0JaJv6v+AAAdZG9A+7gDsN/J/+YTfl4PV/0BADrGk4I0AL2f+NdqlXK5/H9HkpyMiI+qCABAx1UiSR4fGxurrKysvKEce26m2MPkv5a1Wj+MiJpqAAD0hLcI71FJCXY9+f9K1mqdNfkHAOjttCxrtc7WDh8+oRS7YwnQzif+m0t+suy5sOQHAKAffDQi/rMlQbtjCdDOJv+1rNX6bkRMqwYAQF+yJGiH3AG4++R/1np/AIC+V9l6StBSo9n8Z+XQAOxt8n/48LNZln07LPkBAMhHE5AkXxwbG4uVlZU3lUMDsPOJ/+Z6/5ci4oRqAADkSxIxOzY2VhkfH///Go3G+ypyS324afJvvT8AQDHYF3AbHgN64+R/emu9v8k/AEABpndZq/XDWq1WUwoNwO0m/39ksy8AQCGbgLO1iYnHlWKTPQDx4Wbfk2GzLwBAEX3U5mANwI2T/4jn/HcBAFBsW5uDB74JGOgG4PDhw98KT/oBABi0JqC2srLyvQGuweCp1WqVLMu+G1k26z8DAIBBnAUnZ5Ik+Xyapg0NwCBM/j3pBwCAiHNJqfT5QXtM6EA1AFvP+PekHwAArhm4dwUMzGNATf4BALjdNHHQ3hUwEA2AyT8AAJqAAWkATP4BANAEDEgDYPIPAIAmYEAaAJN/AAA0AQPSAJj8AwCgCRiQBsDkHwAATcD2CvUeAJN/AADaLE1KpYeK9MbgwtwB2HrD73dN/gEAaOc0c+tOQEUD0GeyLPtuREzLKAAAbTa9NdcshKEifIjDhw9/K4l4XDYBAOiQ2tjYWG1lZeV7GoBeH4nDh5+NiBMyCQBAJyUR02NjY7GysvKmBqCHk/8s4jlxBACgS03AbN6bgNw2ALWJicezJPmfYggAQLebgPHx8bTRaPwspz9/Dif/m4/7PBsRFREEAKAHGkmp9Nk0Tc/l7QfP3VOArnvWv8k/AAC9Uslare/m8UVhuboDsPWs/7PhWf8AAPSHc1t3Ahp5+YFzdQeg1Wo9a/IPAEAfmW61Wi/k6QfOzSbgrcd9fl3GAADoJ3l7PGgulgBtPfHnu+IFAEDfTqw3lwKd0QDsd/L/602/NbECAKCPNZJS6aE0TdN+/iH7fg+AyT8AADlx7clAFQ3AHh0+fPgFk38AAHJkeuvBNX2rbzcB12q1r0SWPSdDAADkSRIxMz42ttJYWVno05+vLyf/3vQLAECe9e1+gL5cAuRNvwAA5Fwla7V+2I/7AfquAbDuHwCAgqj1436AvloCVJuYeCJLkm/JCgAARZFk2efTy5df0wDcPPn3vH8AAIqpr/YD9M0SoK3bIyb/AAAUTSXLsr5Z5dIXjwHdeuTn12UDAICCqvXLo0F7vgTIIz8BABgQfbEUqOdLgLZuh5j8AwBQdH2xFKinS4C2lv78N1kAAGBA9HwpUM+WAFn6AwDAgOrpUqCeLQHaeuqPyT8AAIOmp0uBetIA1CYmnkginnDsAQAYSFk2W5uYeLwXf3XXlwB54RcAAETE5lKg+9I0bXTzL+36HQAv/AIAgIiIqGzNjbuqq3cAtq7+v+1YAwDA1oS8VPpsmqZnuvX3dfUOwNbSHwAA4NocOcu6ehega+8BqE1MPBFJ8oRDDAAAN06Vu/lugK4sAbLxFwAA7qhrG4K7sgTIxl8AALijrm0I7vgdABt/AQBgh5PzzbsAaSf/jo7fAejFo40AACCPuvGG4I7eAajVarOe/AMAALuYoHf4saAdvQOQtVrfcggBAGAXc+gOPxa0Yw1AbWLiibDxFwAAdtsBzNZqtdncNQBZklj7DwAAe5lLd3AlTUcaAFf/AQBgf1PqrTl123VkE/CRw4ff1gAAAMC+pEmp9FC7Xw7W9jsArv4DAEB7ptatVutEu79p2xsAa/8BAKA9koiv9HUD4Oo/AAC0VaXdewHa2gC4+g8AAO3V7jl22xoAV/8BAKAjau18L0DbGoAsSb7i2AAAQPu18+3AbWkAtjqSaYcGAAA60gG07e3AbWkAWq3WHzkqAADQyR6gPXcB9v0isFqtVstarbcdEgAA6KykVBrf74vB9n0HoNVqefIPAAB0QTteDLbvBiCJmHUoAACg89rxYrB9NQAe/QkAAF1V2e9m4P3dASiVbP4FAIAu2u9m4D1vArb5FwAAemM/m4H3fgdgY2NW6QEAoPv2sxl4zw1AliSe/gMAAD2QJMlnutoA1Gq16bD5FwAAemMfbwbeUwPQarW+ouoAANA7rVarew2AZ/8DAEBv7fWdALtuALZuNdSUHAAAempP7wTY/R2AVutxtQYAgN7byzKgXTcAWcQfKjUAAPReErHrF/PuqgHw9B8AAOgrtVqttqv5+W7vAMyqMQAA9JFdLtHfXQOQZZb/AABAH8mSZFdz9GSnX1ir1SpZq7WsxAAA0F+SUmk8TdPGTr5253cANjZmlRYAAPrQxsbjO/3SHTcArV3eWgAAALqjlSTTbW8AvP0XAAD6U7KLR/XvqAHYerRQTWkBAKAv7fhxoDu7A2D9PwAA9LcdPg50Rw1AVipZ/w8AAP3tk21rACLLptUTAAD6VxbxeFsaAOv/AQAgFyo72Qdw9zsA1v8DAEA+7GDuftcGoJUkn1FJAADofzt5H8BdG4AkYlopAQCg/yU7uHif3Olf1mq1StZqLSslAADkpAkolcbTNG1s9+/vdgdgWgkBACBX7jiH1wAAAECRtFp7bwCyLLMBGAAA8uWTe24AIstq6gcAAPmRRcze6d9vuwnYBmAAAMinO20EvtMdgGmlAwCAXNp2Lq8BAACAornDRuDSHf5QTeUAACCXPrn7BiBJPqluAACQP1mSTO+6AcgsAQIAgJx2ANs/zfO2DUCtVqtEllVUDgAAcqlSq9VqO24AwtV/AADIu2kNAAAADIptHupT2s0XAwAAOZn/R+yiAfAEIAAAyLXSbhqA7A67hgEAgP6XbfMugO32AGgAAAAg32q1Wq1y1wagVqtNqxUAABTC3RuA230RAACQS9M7aQCm1QkAAArgNk/3LO3kiwAAgBzO/2+zt/eWBiBLkiNKBQAA+VfaSQMQHgEKAACFcLuL+7c2AEmiAQAAgEJ0ALde3L+hAajVapXIsopKAQBAIVRufhfAzXcAamoEAADFagLu1ABU1AcAAAplevsGYGOjpj4AAFAgGxuV7RsAG4ABAKBYbprj2wMAAADFdmT7BsBLwAAAoGjGt28AAACAQrn5ZWA3NACZtwADAEDBOoAb3/NlDwAAABRb7bYNwM1vCAMAAArSAVw31y9t1xkAAACFcdsGoKIuAABQSLVbG4Cb3hAGAAAUxMbGbRqAoaGaygAAQLH9ugFotSrKAQAABZQktVsbAHsAAACgkFo2AQMAwOAoRYzd2gDc9IpgAACgGLJtlgABAADFVLmlAciyrKYuAABQQFl2awMQSVJRGQAAKKTbNADXdQUAAECBG4BarWbyDwAABXZtzl+6uSMAAAAKqRIR8RsaAOg/w8PDMT4+HuPj4zEyMvLhr+Hh4RgeHo4DBw7c8PXr6+uxtrYWq6urH/7v6upqLC8vx/LycqytrSmq/MgP8gNoAKCfTrjVajUOHjwYhw4dipGRkV39+QMHDsSBAwe2/XPLy8vRaDTiypUrcfXq1XjvvfcUXX7kB/mBAW0AkoiIWq02m7VaP1QT6O5Jd3Jy8sMTbzddvXo1Ll686GQsP/IjP/IDAyQplT6fpulrm3cANjZqkSSqAl1w6NChOHr0aNdPutc7ePDgh39/vV6PixcvRr1ed3DkR37kR36gyDY2KhG/XgIEdNC1q23333//rm+vd1q1Wo1qtRqrq6tx/vz5uHjxogMmP/IjP/IDBba5BOjw4eeyiGeVA9rvgQceiKNHj96yca5fORHLj/zIj/xAYSf+z6eXLj03FBFRGRubjYhZZYH2OXToUPyn//Sf4siRIzE0NJSbn/vahsDJyclYX1+P5eVlB1N+5Ed+5AeK0QC82VhZOXOtAXg8ImaUBfZvdHQ0PvWpT8UnP/nJGB4ezu3nuHYiHh0djUaj4VF+8iM/8iM/kHNZxM9WVlb+/loD8MWImFYW2J/Jycn49Kc/HZVKpTCfaXx8PKrVqqtx8iM/8iM/kHOliH9urKx8bygiYqxS+aOIeEBZYG+Gh4djeno6pqenc3W7fTefr1qtxvDwcLz77ruxsbHhoMuP/MiP/EDOJBHnPmwAxiuV/xYRNWWB3RsdHY25ubn47d/+7cJ/1o997GNx5MiReOedd9ySlx/5kR/5gdx1AEljZWXllZJKwN7dc8898dhjj/Xdo/U6aWRkJB555JEYHx8XAPmRH/mRH8ihzT0AlcoT4Q4A7Mrk5GTMzs4W8pb73QwPD8cnPvGJWF1dtS5XfuRHfuQH8mLzDsD/u7kHYGzsuYioqArszAMPPBC/+7u/O/B1qFarsba2Fu+++65QyI/8yI/8QP97f2Vl5cVrTwE6oQGAnZ98H374YYXYcu+99zoJy4/8yI/8QD40VlZWXtzcA5AkJv+wA5OTk06+t/E7v/M7MTk5qRDyIz/yIz+QA5sNQJZpAOAu7rnnnpiZ8b687czMzNiYJz/yIz/yA/2t9usGALij0dHR+IM/+AOFuItHHnkkRkdHFUJ+5Ed+5Af6mAYA7mJ4eDgeeeSRgXrU3n5rNTw8rBjyIz/yIz/Qrw1ArVarKQNs7+jRo06+uzAyMhJHjx5VCPmRH/mRH+hDtVqt5g4A3MHk5GTcf//9CrFL999/v0158iM/8iM/0Kc0ALCN0dFRV5L24eGHHx7o9bjyIz/yIz/Qzw1ARRngVm6978/w8PBAP7JQfuRHfuQHNACQI5OTk3HfffcpxD5Vq9U4dOiQ/CA/8iM/0D/sAYDbceu9fQbx2eXyIz/yIz/QzzQAcJPJyUm33ttoZGRkoDYyyo/8yI/8gAYAcsbVt87UdFCezS0/8iM/8gP93wBsbFSUATa5+tYZw8PDA7GmWX7kR37kB/rexkbNJmC4jqtvnfPAAw/ID/IjP/IDfcASINgyMTHh6lsHjYyMFPqJHPIjP/IjP6ABgJxxi7jzinyFU37kR37kBzQAkCOjo6NRrVYVosMOHjxYyM148iM/8iM/kK8GIElqyoATw0FF6JIiXumUH/mRH/mB3EgSLwKDiM2nb9AdExMT8oP8yI/8QA9pABh4o6OjrsB1UdFuw8uP/MiP/IAGAHJ4QqC7irTeWX7kR37kBzQAkDMeDWfSIz/yIz/yAxoAGCDj4+OKYNIjP/IjP/IDA6EVUSlFRE0pGFTDw8NRqVQUostGRkYKsQ5XfuRHfuQH8qYUMeYOAAPN1Te1lx+19xnkBwawCQAnAbqvCFc+5Ud+5Ed+QAMAOTMyMqIIPTI6Oio/yA/yAxoAcAJWe58B+UHtQQMAHWIjWO8U4Qqc/MiP/MgP5LIByJJkTBkYVK4C9c6BAwfkB/lBfqAXDUASUVEGBpUrcE7A8iM/8iM/MEiyJKlZAoSTACY/8iM/8iM/MEA0AAAAoAEAAAA0AAAAgAYA8mp9fV0RemRtbU1+kB/kBzQA4CSg+ZIf5Af5AQ0AOAkUzurqqvwgP8gPaACgu9577z1F6JEiXP2UH/mRH/kBDQDkjKtAai8/au8zyA8MmEopy7KaOuAkQLcV4eqn/MiP/MgP5E6WVdwBYKAtLy8rQo80Gg35QX6QH+gBDQAaANReftTeZ5Af0ADAYFhbW3MbvgcajUYhNuHJj/zIj/yABgBy6MqVK4rQZb/61a/kB/mRH/kBDQD0xtWrVxVBzX0WNfdZ5Ac0ADAo6vW6InRZka56yo/8yI/8gAYAcmZtbc0VoS66evVqodY9y4/8yI/8gAYAcshVuO65ePGi/CA/8iM/oAEAJ4VBUcTb7/IjP/IjP6ABgJxxG7476vV6IW+/y4/8yI/8gAYAcuj8+fOK0GFvv/22/CA/8iM/oAGA/nDlyhVXhzpodXU1Ll++LD/Ij/zID2gAoH9cuHBBETpkEK5wyo/8yI/8gAYAcubixYuxvr6uEG22uro6EBsd5Ud+5Ed+QAMAObO2thY///nPFaLNBuXqm/zIj/zID2gAIIcuXLhgLW4bDdrVN/mRH/mRH8hDA1BTBrjRwsKCIrTJIF59kx/5kR/5gT5WcwcAbuPKlSveztkGFy9eHMirb/IjP/IjP9DPNACwjbfeesuGvH1YXV0d6Ktv8iM/8iM/oAGAHJ5A3nrrLYXYo/Pnzw/0Wmb5kR/5kR/oV0OVsbHnlAFub3l5OYaHh+NjH/uYYuzChQsXYnFxUX7kR37kR36gD7kDAHfhStLurK6uepSh/MiP/MgPaAAgv9bW1uIHP/iB9bg7PPmqlfzIj/zID2gAoDAnFu7sRz/6kauV8iM/8iM/oAGAYlheXvZ87jtYWFiI5eVlhZAf+ZEf+YE+ZxMw7PIkvLa2Fvfee69iXOett96Kf/mXf1EI+ZEf+ZEf0ABA8bz77rtOwjedfC9cuKAQ8iM/8iM/oAGAYp+EV1dXo1qtDnQdFhYWXHmTH/mRH/mBnEmOHD6cKQPszfj4eHz605+OkZGRgfrc6+vr8YMf/MCaW/mRH/mRH8ghdwBgH95///2o1+sxMTERw8PDA/GZV1dX44033ohmsykA8iM/8iM/oAGAwbO+vh5vv/12DA0NFf6NnRcuXIgf//jH8f777zvw8iM/8iM/oAGAwbWxsRG//OUvY3V1NcbHxwt3NW59fT3+6Z/+KRYXF6PVajng8iM/8iM/kGP2AECbjYyMxNGjR2NycrIQn6der8dbb73lBTvyIz/yIz+gAQDuZHJyMo4ePZrbDXqrq6uxsLAQV65ccTDlR37kR35AAwAU9US8vr4eP//5zz1bW37kR37kBzQAQJFPxKurq3HhwoX413/911hfX3fA5Ed+5Ed+QAMAtMPExETcd999ffMSn6tXr8b58+fdapcf+ZEf+QENANBJIyMjcejQoZicnIyDBw92/aRbr9ddbZMf+ZEf+QENANDLk/HBgwfjnnvuiUql0tbvv7q6GleuXImrV6/G5cuXnXTlR36QH9AAAP3kwIEDcc8998T4+Hj85m/+ZoyOjsbw8HCMjIzE8PBwHDhw4IavX19fj7W1tVhfX4/33nsv3nvvvfiP//iPWF5ejl/96ldOuPIjP8gPoAEAAIBBVFICAADQAAAAABoAAABAAwAAAGgAAAAADQAAAKABAAAANAAAAIAGAAAA0AAAAAAaAAAAQAMAAAAaAAAAQAMAAABoAAAAAA0AAACgAQAAADQAAACABgAAANAAAAAAGgAAAEADAAAAaAAAAEADAAAAaAAAAAANAAAAoAEAAAA0AAAAgAYAAADQAAAAABoAAABAAwAAAGgAAAAADQAAAGgAAAAADQAAAKABAAAANAAAAIAGAAAA0AAAAAAaAAAAQAMAAABoAAAAAA0AAACgAQAAAA0AAACgAQAAAIrmN5QA+k+5XI6pqamYevDBqH7841GdmIhqtRrlcvnDX9drNpvRbDajXq9v/u/ly1F/551Y/MUvYnFxMZrNpqLKj/wgP0BERCRHDh/OlAF6f8Kdm5uLmU99KmZmZqJarbb1+y8uLsbi4mIsLCzEwk9/GvV6XdHlR36QH9AAAN0+6R47fnzzxDsz09W/e2FhIU6fPu1kLD/yIz/yAxoAoNNmZmbixFNPdf2ku535+fk4/eqrMT8/7+DIj/zIj/yABgBoh2tX25588sm2315vl3q9HidPnozTr77qgMmP/MiP/IAGANirJ7/0pThx4sQtG+f6lROx/MiP/MgPaACAPZiZmYlv/NVf9e0VNydi+ZEf+ZEf0AAAbVCtVuOZZ5+Nubm5Qnye06dPx8kXXrBZT37kR37kBwpiqDI29pwyQHscO348/vqb34ypqanCfKapqamYe/TRaP77v8fi4qKDLD/yIz/yAxoAoFwux9e+/vX42te+Fh/5yEcK+fnm5uaiPDYWZ8+ejQ8++MBBlx/5kR/5gZyyBAj2qVqtxt9+5zu5XWu7W/V6Pb74hS+4JS8/8iM/8gM5VVIC2Lupqan4/uuvD8zJ9/oJR5GWGciP/MiP/IAGALirY8ePx/dffz03j9dr90n4+6+/HseOHxcE+ZEf+ZEfyBl7AGAPnvzSl+Iv/uIvBr4Oc3Nz0Ww24+zZs0IhP/IjP/IDGgAo7sn3mWeeUYgtn5mddRKWH/mRH/kBDQAU07Hjx1152+YkXH/nHY/pkx/5kR/5gRzwFCDYoWsb7tje5x57zElYfuRHfuQH+pxNwLAD1Wo1/vqb31SIuxikxxHKj/zIj/xAXrkDAHdRLpcH7lF7+1Gv1+Nzjz0WzWZTMeRHfuRHfqAPuQMAd3HiqaecfHehWq3GiaeeUgj5kR/5kR/oUzYBwx0cO3Ysvvb1ryvELj300EM25cmP/MiP/ECfsgQItnHtjZOuvu1Ns9mMzz32WNTrdflBfuRHfqCPWAIE2zhx4oST7z6Uy+V45tln5Qf5kR/5AQ0A9L9jx455zXwbzM3NxczMjPwgP/IjP9BHLAGC2/jxT37i6lub1Ov1+P3f+z35QX7kR36gT7gDADc5duyYk28bVavVePLJJ+UH+ZEf+YE+4Q4A3MTVt/ZrNpvx+7/3ewPxbG75kR/5kR/od+4AwHVcfeuMcrkcx44dkx/kR37kB/qAOwBwHVffOmcQ1uLKj/zIj/xAHrgDAFvm5uacfDuoWq0W+okc8iM/8iM/oAGAnPHYvc478dRT8oP8yI/8QI9ZAgSxeXXoxz/5iUJ0wf959GjhNuPJj/zIj/xAnrgDABFuDXdRETfjyY/8yI/8gAYA8nZScPu9a+YefVR+kB/5kR/QAEDv2BzWXTMzM1Eul+UH+ZEf+QENAPTuhEB3zc3NyQ/yIz/yAxoAcAIemJp/6lPyg/zIj/yABgB6Y+rBBxXBpEd+5Ed+5Ac0ADAIyuVyTE1NKUSXVavVQqzDlR/5kR/5AQ0A5IyTr9rLj9r7DPIDGgBwEkDt5UftfQb5AQ0AFFG1WlUEtZcftfcZ5Ac0ADAwJ4GJCUVwApYf+ZEf+QENAAwKG8FMfuRHfuRHfkADAIN0EnAVyORHfuRHfuQHNADgJIDay4/a+wzyAxoAcBJA7eVH7X0G+QENAAAAoAEAAAA0AAAAgAYAeqTZbCqC2suP2vsM8gMaAHASQO3lR+19BvkBDQA4CdA29XpdfpAf5Ac0AOAkMDDN18qK/CA/yA9oAKDLJ+DLlxXB5Ed+5Ed+5Ac0AOAkgNrLj9r7DPIDGgAonMXFRUVQe/lRe59BfkADAE4CqL38qL3PID+gAYDCaTabbgX36ORblMc4yo/8yI/8gAYAcmbhpz9VhB6cgOUH+ZEf+QENAPTmBLywoAhq7rOouc8iP6ABgEExPz+vCN0+ARfoqqf8yI/8yA9oACBnms2mK0LdPPkuLBRq3bP8yI/8yA9oACCH5t94QxG65PTp0/KD/MiP/IAGAJwUBkURb7/Lj/zIj/yABgByxm347ph/441C3n6XH/mRH/kBDQDk0MkXXlCEDjv9d38nP8iP/MgPaACgP9gc1ln1er3Qa53lR37kR35AAwA5dOrllxWhQ06ePCk/yI/8yA/0geTI4cOZMsCmcrkcP/7JT6JcLitGG9Xr9fj93/s9+UF+5Ed+oA+4AwDXaTab1uJ2wKBcfZMf+ZEf+YE8cAcAbuPHP/lJVKtVhWiDQbz6Jj/yIz/yA/3MHQC4ja8+/bQitMkgXn2TH/mRH/kBDQDkzMLCQszPzyvEPp0+fTpOv/qq/CA/8iM/0EcsAYJtVKvV+P7rr9uQt0f1ej2++IUvDOyjDeVHfuRHfqBfuQMAdziB/PnzzyvEHp08eXKgT77yIz/yIz/Qr4YqY2PPKQPc3uLiYpTL5Xjo4YcVYxdOvfxyvPTSS/IjP/IjP/IDfcgSILiLcrkc33/9dU/l2KF6vR6fe+yxaDabiiE/8iM/8gN9yBIguItmsxlf/MIXnFB2ePJVK/mRH/mRH+hv7gDADk1NTcX3X39dIe7gc489FouLiwohP/IjP/IDfcwdANihxcVFz+e+g68+/bSTr/zIj/zID+SATcCwy5Nws9mMz8zOKsZ1/vz55+Nv/uZvFEJ+5Ed+5Ac0AFA8Z8+edRK+6eR76tQphZAf+ZEf+QENABT7JFyv12Pu0UcHug5fffppV97kR37kR34gZ2wChn2YmpqKv/7mNwfuEX3Xnkxiza38yI/8yA9oAGDgVKvV+NvvfGdgTsLXHrXnLZvyIz/yIz+QT54CBG04IX3uscfi1MsvF/6znnr55fjcY485+cqP/MiP/ECO2QMAbfDBBx/Em2++GfV6PaYefDDK5XKhPl+z2Yz/8Wd/Fi+99FJ88MEHDrj8yI/8yA9oAICIzcf0zc/PR7lcjqkHHyzEZ5qfn48/+fKXY2FhwQGWH/mRH/mBArAHADrk2LFjceKpp3K7Nrder8dXn37aiVd+5Ed+5Ac0AECRT8TNZjNOvvCCZ2vLj/zIj/yABgAo8om4Xq/HqVOn4vSrr0az2XTA5Ed+5Ed+QAMAtMPc3FwcO3485ubm+uLnWVhYiJMvvOBWu/zIj/zID2gAgE6qVqsxMzMTx44fj5mZma6fdOfn511tkx/5kR/5AQ0A0MuT8czMTEw9+GBMTU219fvX6/VYWFiIhZ/+NObn55105Ud+kB/QAAD9pFwux9TUVEw9+GBUP/7xqE5MRLlcjmq1GuVy+ZbnfDebzQ9/1ev1qF++HPV33onFX/wiFhcXnXDlR36QH0ADAAAAg6ikBAAAoAEAAAA0AAAAgAYAAADQAAAAABoAAABAAwAAAGgAAAAADQAAAKABAAAANAAAAIAGAAAANAAAAIAGAAAA0AAAAAAaAAAAQAMAAABoAAAAAA0AAACgAQAAADQAAACABgAAANAAAACABgAAANAAAAAAGgAAAEADAAAAaAAAAAANAAAAoAEAAAA0AAAAgAYAAADQAAAAABoAAADQAAAAABoAAABAAwAAAGgAAAAADQAAAKABAAAANAAAAIAGAAAA0AAAAAAaAAAAQAMAAAAaAAAAQAMAAAAUzW8oAfSf4eHhGB8fj/Hx8RgZGfnw1/DwcAwPD8eBAwdu+Pr19fVYW1uL1dXVD/93dXU1lpeXY3l5OdbW1hR1gJTL5ZiamoqpBx+M6sc/HtWJiahWq1Eulz/8db1msxnNZjPq9frm/16+HPV33onFX/wiFhcXo9lsKqrxx/gDBZIcOXw4Uwbo/Qm3Wq3GwYMH49ChQzEyMtLW77+8vByNRiOuXLkSV69ejffee0/RCzbhn5ubi5lPfSpmZmaiWq229fsvLi7G4uJiLCwsxMJPfxr1el3RjT/GH9AAAHs56U5OTn544u2mq1evxsWLF52Mcz7pP3b8+ObEf2amq3/3wsJCnD59WjNg/DH+gAYA2IlDhw7F0aNHu37S3U69Xo+LFy+ayOXEzMxMnHjqqa5P+rczPz8fp199Nebn5x0c44/xBzQAwDXXrrbdf//9bb+93i6rq6tx/vz5uHjxogPWZ65d7X/yySfbvrynnRO5kydPxulXX3XAjD/GH9AAwGB74IEH4ujRo7dsnOtXTsT95ckvfSlOnDhxy8bdfqURMP4Yf0ADAAPr0KFDMTMz07dX3JyI+9vMzEx846/+qm+v+GsEjD/GH9AAAFtGR0fjd37nd+LjH/94IT7P22+/HefPn7dZr0uq1Wo88+yzMTc3V4jPc/r06Tj5wgvWeBt/jD/QR4YqY2PPKQO0x+TkZHz605+OSqVSmM80Pj4e1Wo11tfXY3l52UHuoGPHj8dff/ObMTU1VZjPNDU1FXOPPhrNf//3WFxcdJCNP8Yf0ABAMQwPD8f09HRMT0/H0NBQIT9ftVqN4eHhePfdd2NjY8NBb6NyuRxf+/rX42tf+1p85CMfKeTnm5ubi/LYWJw9ezY++OADB934Y/yBHrIECPZpdHQ0Hnnkkdyutd2t1dXV+Id/+Ae35NukWq3G337nO7ld679b9Xo9vviFL1gSZPwx/kAPuQMA+3DPPffE3NxcfPSjHx2Yz3ztatzVq1fj/fffF4J9mJqaiu++9lr81m/91sB85nK5HHOPPhoLCwvxb//2b0Jg/DH+gAYA8mNycjJmZ2cLect9JyfhT3ziE7G6umpd7h4dO348Xvlf/6uQS3520gT8X//1v0b9nXfsCzD+GH9AAwD58MADD8Tv/u7vDnwdqtVqrK2txbvvvisUu/Dkl74Uf/EXfzHwdZibm4tmsxlnz54VCuOP8Qc0ANDfJ9+HH35YIbbce++9TsK7nPw/88wzCrHlM7OzmgDjj/EHNADQvyYnJ1152+Yk7Hb83R07ftyV/22aAMuBjD/GH+iekhLAztxzzz0xMzOjENuYmZmJ8fFxhdjG1NRUfOMb31CIbXzjG98o1PsPjD/GH9AAQM6Njo7GH/zBHyjEXTzyyCMxOjqqEDepVqvx19/8pkLcxSA9DtX4Y/wBDQD0seHh4YF6znY7ajU8PKwYW8rlsontLmtVLpcVw/hj/AENAPTO0aNHnXx3YWRkJI4ePaoQW0489ZTJ/y5Uq9U48dRTCmH8Mf5AB9kEDHcwOTkZ09PTCrFLH/vYx2zKi4hjx47F177+dYHYpYceesimYOOP8Qc6yB0A2Mbo6KgrSfvw8MMPD/R6XFey9+eZZ54Z6Dsnxh/jD2gAoAfcet+f4eHhgX5e+YkTJyz92YdyuRzPPPus8QfjD2gAoDsmJyfjvvvuU4h9qlarcejQoYH73MeOHYtjx48LwD7Nzc0N5KMvjT/GH+hGA5AqA9zIrff2GcQJnKU/7fONv/or4w/GH2iv1B0AuMnk5KRb7200MjIS999//8B83mPHjln600bVajWefPJJ4w/GH2gjDQDcxNW3ztR0UJ7N7ep/Z2o6KO8GMP4Yf0ADAF3m6ltnDA8PD8SaZlf/O6NcLsexY8eMPxh/QAMA7efqW+c88MADhf+Mrv53zpNf+pLxB+MPaACgvSYmJlx966CRkZFCP5Fjbm7O1f8Oqlarhd7Qafwx/oAGAHrALeLOK/IVTo/97Lwi32Ex/hh/QAMAXTY6OurqbRccPHiwkJvxqtVqzM3NOcAdNjMzU8jNwMYf4w9oAKBHJwa6o4hXOj1rvHuKuBnY+GP8AQ0A9MDk5KQidMnExETxJqWW/3TN3KOPGn8w/oAGAPZndHTUFbguKtpt+KJvTu03RVsGZPwx/oAGAHp0QqD7k+YiTUjpriLttzD+GH9AAwA94NFwJj0agJzV/FOfMv5g/AENAOzd+Pi4Ipj07NnUgw86oJou44/xBzQAkBfDw8NRqVQUostGRkYKsQ63XC7H1NSUA9pl1Wq1EPsAjD/GH9AAQA+4+qb2+2Hyr/bGH7UHDQA4CbBDRbjyqQFQe+OP8Qfy2gA0lIFBNTIyogg9Mjo6mvvP4Gkiam/8Mf5A7iRJWkqSRAOABgC138sk1EuFNADGH7WHHLIEiIFmI1jvFOEKXJFeSKX5Mv4Yf0ADAAPBVaDeOXDgQP4noZYAab6MP8Yf0ABAvrgC5wQ86JNQtTf+GH9AAwBOApj8aADU3vhj/AENAAAAoAEAAAA0AAAAgAYA+s76+roi9Mja2lruP0Oz2XQg1d74Y/yBHDYAWbakDDgJYPKjAVB744/xB4ovybIVdwBwEqAnVldXTULZs3q9bvxhoMcf2IdlDQAD7b333lOEHinC1c8iTEJz23ytrBh/GOjxB/ZDA8BAcxVI7ffVAFy+7EBqvow/ag8aAHASYCeKcPXTHQC1N/4Yf0ADADmzvLysCD3SaDRy/xkWFxcdSLU3/hh/QAMATsAMSu01AGpv/FF7yGsDoA1mYK2trbkN3wONRqMw7wGwDKg3k/+iPAbU+GP8gR5Y0gAw8K5cuaIIXfarX/2qMJ9l4ac/dUB70AAYfzD+wN5ZAsTAu3r1qiKo+d4bgIUFB1TN/beg5qABgDyxhKP7inTVc35+3gHtdgNQoLsuxh/jD2gAoAfW1tZcEeqiq1evFmrdc7PZdBegm5P/hYVCTZqNP8Yf0ABAj7gK1z0XL14s3Geaf+MNB7ZLTp8+bfzB+AP7bgCyLFUGnBScFLqliLffizgp7VdF3HRt/DH+QFdlWeoOAITb8N1Sr9cLefvdMqDumH/jjUJeLTf+GH+g2zQAsOX8+fOK0GFvv/12YT/byRdecIA77PTf/Z3xB+MPaACgfa5cueLqUAetrq7G5cuXC/v5irY5td/U6/VC77Uw/hh/QAMAPXLhwgVF6JBBuMJ56uWXHegOOXnypPEH4w+0w9BQoxRDQ6lKwKaLFy/G+vq6QrTZ6urqQGx0PH36dDSbTQe8zer1epx+9VXjD8YfaI+GOwBwnbW1tfj5z3+uEG02KFffms2mvQAdMAhX/40/xh/oJg0A3OTChQvW4rbRoF19O3XqlL0AbTQoV/+NP8Yf0ABAj3mkY/sM4tW3rz79tAPfJoNy9d/4Y/yBbjcAqTLAja5cueIqbhtcvHhxIK++LSwsxPz8vADs0+nTpwfq6r/xx/gDXWIPAGznrbfesiFvH1ZXVwf66tufP/+8DcH7UK/XB3o/hfHH+AMaAOjRCeStt95SiD06f/78QK9lrtfr8efPPy8Ie3Ty5MmBvgpu/DH+QCcNVSqVSmTZCaWAWy0vL8fw8HB87GMfU4xduHDhQiwuLg58HRYXF6NcLsdDDz8sFLtw6uWX46WXXjL+GH+MP9ABSZK8WErTNFUK2J4rSbuzurrqUYbXGfQr2btVr9cHcuOv8cf4A92SpmlqCRDcxdraWvzgBz+wHneHJ1+1ulGz2YwvfuEL9gPscPKvVsYf4w90ngYAdnFi4c5+9KMfuVp5h4ktd/YnX/6yuyXGH+MPdLEBSJUC7mx5ednzue9gYWEhlpeXFWIbi4uL3g9wB199+mnrto0/xh/ovEZExFBERGVs7EREVNQE7n4SXltbi3vvvVcxrvPWW2/Fv/zLvyjEDpqAZrMZn5mdVYzr/Pnzz8ff/M3fKITxx/gDnfe/V1ZWXtQAwC69++67TsI3nXwvXLigEDt09uxZTcBNk/9Tp04phPHH+APd0bi+AXgiIv4PNYGdn4RXV1ejWq0OdB0WFhZcedtjE1Cv12Pu0UcHug5fffppV/6NP8Yf6KYkObeysvLKUETEeKXyxYioqQrs3PLyctTr9bj33ntjeHh4oD77+vp6zM/Pxy9/+UtB2KPFxcWYn5+Pz8zORrlcHqjP3mw24/OPPx5vvvmmIBh/jD/Q3QYgXVlZecVTgGCfJ+Ef/OAHA/XkidXV1fj+979vw12bmoAvfuELA/Xkm3q9Hp977DEbfo0/xh/ooWtLgD4bEdPKAbu3vr4eb7/9dgwNDRX+jZ0XLlyIH//4x/H+++878G3SbDbj9OnT8ZGPfKTwbww+9fLL8ad/+qfxb//2bw688cf4Az2QRPyssbLyt9cagMc1ALB3Gxsb8ctf/jJWV1djfHy8cLfk19fX45/+6Z9icXExWq2WA95mH3zwQbz55ptRr9dj6sEHC7ckqNlsxv/4sz+Ll156KT744AMH3Phj/IHeNQALjZWV711rAGYjYkZZYH+urcsdHh6O8fHxQnymer0eP/rRj+Lq1asOcIdd2xdQLpdj6sEHC/GZ5ufn40++/GXPsDf+GH+gD2QRb66srPz9tQZgJiJmlQX2b319Per1eu6vxq2ursY//uM/xuLiYqyvrzuwXdJsNmN+fj73dwPq9Xr8yZe/HC+99FI0m00H1vhj/IE+UIp4o7Gycub6OwAaAGij5eXluHDhQu5OxOvr63Hu3Ln4yU9+MlCbC/vN4uJinDp1KneNQLPZjP/nL/8y/vRP/3SgNjcbf4w/kAdJxJuNlZUzSUREbWLiiSxJvqUs0DmTk5Nx9OjRGBkZ6cufb3V1NS5cuBD/+q//6opbHzp27FiceOqpvn32e71ej1OnTsXpV191xd/4Y/yBfm0AsuyP08uXv60BgC6bmJiI++67r28mclevXo3z58/HlStXHJwcmJubi2PHj8fc3Fxf/DwLCwtx8oUXrPE3/hh/IIcNwONZknxXWaB7RkZG4tChQzE5ORkHDx7s+km3Xq+72pZj1Wo1ZmZm4tjx4zEz091nOCwsLMT8/Lyr/cYf4w/krQEolT6bpunWEqBabTZrtX6oLNDbk/HBgwfjnnvuiUql0tbvv7q6GleuXImrV6/G5cuXnXQL2gzMzMzE1IMPxtTUVFu/f71ej4WFhVj46U9jfn7epN/4Y/yBgjQA01mrdVZZoD8cOHAg7rnnnhgfH4/f/M3fjNHR0RgeHo6RkZEYHh6OAwcO3PD16+vrsba2Fuvr6/Hee+/Fe++9F//xH/8Ry8vL8atf/coJd8CUy+WYmpqKqQcfjOrHPx7ViYkol8tRrVajXC7fsqG42Wx++Kter0f98uWov/NOLP7iF7G4uGjCb/wx/kBxGoCH0jQ9d60BqGWt1tvKAgAAhW0A7kvTNC1t/XNDSQAAoNAaERHJtX86cvhwpiYAAFBMS5cuJRERpQ9/J0kaygIAAIX04Vz/1w1AlmkAAABgYBoA+wAAAKCYkiS9pQFILAECAIDCu34J0JJyAABA8SRZlt7aAFgCBAAAhdSKWNEAAADAgCht8xSgVGkAAKCQbtMAAAAAxVQqpbc2AENDqcoAAEAhNW5tACI0AAAAMEANQENdAACgkNJr/ye5/nePHD6cqQ0AABTL0qVLH877S9t1BgAAQCHcMMe/uQFoqA8AABRIktyhAbjpXwIAAMVyQwOQZNmKkgAAQHEkN73w1x4AAAAotqXtG4CbugMAACDn7nIHoKFCAABQIENDd2gAhobOqRAAABRKY/sGwB0AAAAomvT6f0hu/rdHjhxZjiyrqBMAAOReY+nSpfHrf6N0y5fYCAwAAMVwm/d8lXbyRQAAQA7n/1m2dNcG4HZfBAAA5E/rNu/5uvUOQKmUKhUAAORfaUcNwMaGBgAAAArRAZTO3b0B8C4AAAAoisbdGwDvAgAAgEJI0/TcXRuANE0bcZu1QgAAQL7m/7f7zdJtvzRJzqkXAADk2DaP979tA+BRoAAAkG9Zlv1sxw2AR4ECAEC+lXa1BMijQAEAIOcdwK2PAN2+AfAoUAAAyLvbzumT7b76yJEjy5FlFXUDAIDcaSxdujR+u39R2vaPZFmqbgAAkEN3eKrntg1AEvEzlQMAgPzZ7glAd2wAtts0AAAA9LfSHV7sW7rDn9MAAABALjuA7S/mawAAAKB4dt8ApGnaiDvcOgAAAPpQkpzbmsvvrgGIiEgi3lRBAADI0fw/y5bu9O/v2ADYCAwAALlzZu8NgH0AAACQL3e5iK8BAACAYtl7A7C1eUATAAAAeXCXDcB3bQAibAQGAIDczP+z7NzdvuauDUDs4JsAAAB9oFS668X7uzcAQ0NnVBIAAHLhrnP3ZCff5ciRI8uRZRX1BACAPpUk6dLS0n13+7LSjr5Xln1PRQEAoI/n/1n2s5183Y4aAC8EAwCAPlcqvda+BiDiNRUFAIC+dmYnX5Ts9LsdOXz47YioqSsAAPSZHa7/j9j5HYBIIuwDAACAfpz/Z9mZnX7tjhsA7wMAAIA+VSrt+GL9zhuAoaHXVBYAAPrSmbY3AGmaNpIkOaO2AADQR5LkTJqmjbY3AFvf3D4AAADop/n/Lt/ZVdrl939NiQEAoI+USmd21TDs9vt7HCgAAPSJXTz+88N+Ydd/R8QrKg0AAL2X7XL5z54agN3eYgAAADqjVCq9tts/k+zlLzpy5MhyZFlFyQEAoEf2sPwnYi93ACIiybIXVRwAAHo4/9/F23/33QBYBgQAAD1WKu3ponyy17+vduTID7Msm1V5AADosj0u/4nY6x2AiIgse1PlAQCgF/P/5Pm9/tm9NwCl0kmlBwCAnjjT9QYgTdNGkiRn1B4AALooSc6kaZp2vQHY+sufdwQAAKCb8/9kXy/mTfb7A3gnAAAAdG32v+fNv9eU9v0zeCcAAAB0Z/6/x2f/t7UBsBkYAAC6pFTa9xL8fTcANgMDAEDnJRHf3s/m37Y1AJs/jc3AAADQUaXSK+34Nkm7fh5vBgYAgA5JknNLS0sPtaWPaOMP5S4AAAB0ZP6ftO3BO0k7f7AjR468HVlWc4gAAKBts/99P/rzeqX2/mzuAgAAQD/PsZN2/4BeDAYAAG2b/bf16n9Em+8ARHgxGAAAtG/+3/4VNm2/A1Cr1SpZlp21FwAAAPY1+2/71f+IDtwB2HoxmL0AAACwr/l/Z+bUSad+YE8EAgCAPc/+O3L1P6IDdwCu61j+2JEDAIA9zaU7tqIm6eQP7u3AAACw69l/x67+R3TwDsDWD28vAAAA7GoK3dmVNB1tANI0PZMkyRmHEQAAdjD5j/h2mqYdnT+XOv8p7AUAAICdzc5LHV9B0/EGIE3TNInwcjAAALiDrav/ae4bgK1O5rlIkobDCgAAt5v9J2k3rv5HRAx14y9pNBrvj4+PfxBZ9p8dXQAAuGn+Xyo91em1/x/+Xd38YB4LCgAAN8/IO/vYz5uVuvzhPBYUAABumCInn+3m3zfUzb+s0Wik42Nj4xEx41ADADDwk/+Ib6dLS6908+8sdf1T2hAMAABd3fjb0wYgTdNG4t0AAAAM/Pw/eb4bj/285e/t1Qe2IRgAgIGd/Ed8O710qScXxUu9+9TJH1sKBADA4M3+k0Yvlv5cM9Srv7jRaDS8GwAAgIGb/0f893Rp6e97+Pf3lqVAAAAMzOQ/Sc6kS0uf7eXPUOqDKlgKBADAIMz+G9EHD8MZ6vUPYCkQAAADMf/v8dKf636O/mApEAAABZ789+ypPzcr9U9VLAUCAKCIs//evPCr7xuANE1TLwgDAKB48//evPBrO0P9VJxGo/HP42Nj4xExIyoAAORdFvHi0tLSX/ZVQ9JvRarVapUsy85GltVEBgCA3EqSdGlp6b5++7FK/fYDpWnaSJLks/YDAACQ48n/5py2Dw314w/l0aAAAOR6/t8nj/zMTQOw1QQs2A8AAEDeZBEvLl269FwfNyf9a2s/wA8jy6ZFCQCAvten6/6vV+rnH25rP8Dn7QcAACAPk/9+XfefmwZgqwlIkyT5vEQBANDf8//kqX563v92hvJQzEajkY6PjSURMStaAAD0myzi+aWlpf+Zh591KC9FbaysnBkbG7sviZgWMQAA+mjy/+KlS5e+npeft5Sn4pZKpRORJOfEDACAvpAkaalUei5Xc+o8/bDXbQpOpQ0AgF5P/pMk+Wyapo1c/dh5rHWtVpveejxoRfIAAOjB5L+RJMlDedj0e7OhPNa70Wj87/Hx8SuRZY9LHwAAXZ//l0r/JU3ThTz+7EN5LXqj0TjnyUAAAHRbnp74U6gGIGLzyUCaAAAAujn5v3Tp0nN5/gxDeT8IHg8KAECXJv+vXLp06UTeP0dSlANSO3Lkh1mWzYomAABtnzQnyZl0aemzRfgspQIdlc97RwAAAB2YZ56LJPl8YT5OkY5NrVarZFl2NrKsJqkAALRh8n/tWf9pUT5SqUjHZ+tFYZ/1ojAAAEz+B6AB2GoCUk0AAAAm/wPSAGgCAAAw+R+wBkATAACAyf+ANQCaAAAATP4HrAHQBAAAYPI/YA2AJgAAAJP/AWsANAEAAJj8D1gDcFMTcE7aAQAGfvJ/LkmShwZp8j9wDcD1TUCSJGekHgBgUOf+yZmtK/+Ngfvsg3zgDx8+/O0k4o/8JwAAMDiyiFcuXbr0xKB+/qFBPvgrKyuvjY+NJREx6z8FAICBmPw/f+nSpRODXIOhQQ9BY2XljCYAAGBgJv/PDXodElHYVKvVHs+y7FuRZRXVAAAo0ow3aSRJ8lSapt9WDA3AzU1ALcuyH0aW1VQDAKAQk/80SZLPp2l6TjE2lZTg17wrAACgUJP/c1tP+jH51wDctQl4KIl4UTUAAPIpi3hl0F7wtVNDSnCrRqPxfmNl5e9tDgYAyOXk//lLly6daDQa76uGBmB3jcDKypnx8fGfRcRMRFRUBACgjyVJIymVHltaWvq2YtyhTEpwdzYHAwD0/eT/3NZm31Qx7swegB1I0zRdWlq6z74AAID+k0W8aL3/zlkCtAuNlZW/Hx8fX4nNJUEfVREAgB5KkkYS8d+XLl16znr/XZRNCXbPkiAAgJ5P/lNX/ffGEqA9sCQIAKB3tpb8PGTyvzeWAO3D1pKgpYiYDk8JAgDorM2n/PyXpaWlk5b8aAB61wQ0GufGx8e/l2TZ+FYjAABA2+f+yZkkSR5L03RBNfZZSyVon1qtdiLLsmcjyyqqAQDQlpl/I8my59NLl04qhgagX5uAWmTZt7Ism1UNAID9zP2TM5Ekf2ytvwYgL42AuwEAAHub+bvq30H2AHRIo9FYGB8f/469AQAAu5n7b631X1r6e9XoUI2VoPNqtdoTW3cDaqoBAHDbmX8j2Vzu85pidJY7AF3gSUEAANvLIl4slUqfT9P0nGp0oddSgu7yFmEAgK2J6OYm3+fTND2jGhqAQWgELAsCAAZ15m+Tbw9ZAtQjlgUBAIPow+U+S0tnVKNH/ZcS9F6tVqtFq/VcFvFHqgEAFHLS6Zn+GgBu2wjMZln2LcuCAICCTfyt89cAcJdGwP4AACDvM/9067GeJv4aADQCAEDBJ/7Pp2n6bcXQAKARAACKO/FvJFn2YpRKJ9M0bSiIBgCNAABQzIm/K/4aALrRCESWfSXLsmnVAAB6M++3uVcDQC8agdlotZ7w+FAAwMQfDcBgNQKb7xFIks9YHgQAdGDWb32/BoA+bgaeiCz7oyzLZlUDANjfvN/Vfg0AeWoEahExa9MwALDrSX+WvelqvwaAfDcD09FqnbBECADYZtZ/bYnPGVf7NQAUrxmYjVbr8SxJ/lAzAAADLU0iXjHp1wAwWM3AdETMRpb9oT0DADAAE7/NNf3fi4jX0jRNVUQDwGA3A5WIuHZ3wFIhACiGNIn4XmTZuRgaes2afjQA3KkhqMW1uwMR0xoCAMjDzC5pJFn2WpRKPwtX+dEA0JaGoNWajST5pLcQA0A/zPeTc5Flb25d4T9jwo8GgE42BJWImI7NuwOfiYiapgAAOipNIs5sXd0/FxHnLOlBA0D/NAWtVi2S5JNby4cqqgMAO52dJY0kIo0sO2eyjwaA4jQGm3sKaqoDwABLt5bwLEWplEZEujXRT5UGDQBFbg6mI6JyXXNwJCJqWUTNnQMA8j3L2rqSv3k1/4ZJfkQ0XNFHAwC3NgeV2LxLUImNjVokSS0ijmz9b7iLAEAPpUmSNLYm942IWIosS2NoqGGCjwYAutkobP6qRat17f+P3dAwJEnFnQUAbpwNJY3IssbWhL4RWZZGxMp1/z9iaCiNzav3JvZoACDHTcP1vyI2NmpbJ4La1pddayB+/TXx4Z2H0EwA9FT66/n71sR9c5C+9vsrt/ze5tX5G36ZzKMBAPbTVNSu+8cbmoYPf29j48bf+3WzcbMjt/8vNrnd972trD0vb6s5spD/CfKeJwnXT6zvPODc6e9aue33uN2f2bzKvu1nsDkW2uP/B81O5xh044P2AAAAAElFTkSuQmCC;clipPath=inset(13% 13% 11.67% 14%);" parent="6wU86rSJ2iHSWhd7QMuM-1" vertex="1">
          <mxGeometry x="230" y="395" width="48.451327433628315" height="50" as="geometry" />
        </mxCell>
        <mxCell id="6wU86rSJ2iHSWhd7QMuM-27" value="Parameter Store" style="sketch=0;outlineConnect=0;fontColor=#232F3E;gradientColor=none;fillColor=#E7157B;strokeColor=none;dashed=0;verticalLabelPosition=bottom;verticalAlign=top;align=center;html=1;fontSize=12;fontStyle=0;aspect=fixed;pointerEvents=1;shape=mxgraph.aws4.parameter_store;" parent="6wU86rSJ2iHSWhd7QMuM-1" vertex="1">
          <mxGeometry x="70" y="700" width="48.08" height="50" as="geometry" />
        </mxCell>
        <mxCell id="6wU86rSJ2iHSWhd7QMuM-28" value="Route 53&lt;div&gt;Public Hosted Zone&lt;/div&gt;" style="sketch=0;points=[[0,0,0],[0.25,0,0],[0.5,0,0],[0.75,0,0],[1,0,0],[0,1,0],[0.25,1,0],[0.5,1,0],[0.75,1,0],[1,1,0],[0,0.25,0],[0,0.5,0],[0,0.75,0],[1,0.25,0],[1,0.5,0],[1,0.75,0]];outlineConnect=0;fontColor=#232F3E;fillColor=#8C4FFF;strokeColor=#ffffff;dashed=0;verticalLabelPosition=bottom;verticalAlign=top;align=center;html=1;fontSize=12;fontStyle=0;aspect=fixed;shape=mxgraph.aws4.resourceIcon;resIcon=mxgraph.aws4.route_53;" parent="6wU86rSJ2iHSWhd7QMuM-1" vertex="1">
          <mxGeometry x="190" y="700" width="50" height="50" as="geometry" />
        </mxCell>
        <mxCell id="6wU86rSJ2iHSWhd7QMuM-29" value="Route 53&lt;div&gt;Private Hosted Zone&lt;/div&gt;" style="sketch=0;points=[[0,0,0],[0.25,0,0],[0.5,0,0],[0.75,0,0],[1,0,0],[0,1,0],[0.25,1,0],[0.5,1,0],[0.75,1,0],[1,1,0],[0,0.25,0],[0,0.5,0],[0,0.75,0],[1,0.25,0],[1,0.5,0],[1,0.75,0]];outlineConnect=0;fontColor=#232F3E;fillColor=#8C4FFF;strokeColor=#ffffff;dashed=0;verticalLabelPosition=bottom;verticalAlign=top;align=center;html=1;fontSize=12;fontStyle=0;aspect=fixed;shape=mxgraph.aws4.resourceIcon;resIcon=mxgraph.aws4.route_53;" parent="6wU86rSJ2iHSWhd7QMuM-1" vertex="1">
          <mxGeometry x="545" y="395" width="50" height="50" as="geometry" />
        </mxCell>
        <mxCell id="6wU86rSJ2iHSWhd7QMuM-30" value="RDS Instance" style="sketch=0;points=[[0,0,0],[0.25,0,0],[0.5,0,0],[0.75,0,0],[1,0,0],[0,1,0],[0.25,1,0],[0.5,1,0],[0.75,1,0],[1,1,0],[0,0.25,0],[0,0.5,0],[0,0.75,0],[1,0.25,0],[1,0.5,0],[1,0.75,0]];outlineConnect=0;fontColor=#232F3E;fillColor=#C925D1;strokeColor=#ffffff;dashed=0;verticalLabelPosition=bottom;verticalAlign=top;align=center;html=1;fontSize=12;fontStyle=0;aspect=fixed;shape=mxgraph.aws4.resourceIcon;resIcon=mxgraph.aws4.rds;" parent="6wU86rSJ2iHSWhd7QMuM-1" vertex="1">
          <mxGeometry x="665" y="180" width="50" height="50" as="geometry" />
        </mxCell>
        <mxCell id="6wU86rSJ2iHSWhd7QMuM-6" value="Private&lt;div&gt;Service&lt;/div&gt;" style="sketch=0;points=[[0,0,0],[0.25,0,0],[0.5,0,0],[0.75,0,0],[1,0,0],[0,1,0],[0.25,1,0],[0.5,1,0],[0.75,1,0],[1,1,0],[0,0.25,0],[0,0.5,0],[0,0.75,0],[1,0.25,0],[1,0.5,0],[1,0.75,0]];outlineConnect=0;fontColor=#232F3E;fillColor=#ED7100;strokeColor=#ffffff;dashed=0;verticalLabelPosition=bottom;verticalAlign=top;align=center;html=1;fontSize=12;fontStyle=0;aspect=fixed;shape=mxgraph.aws4.resourceIcon;resIcon=mxgraph.aws4.ec2;" parent="6wU86rSJ2iHSWhd7QMuM-1" vertex="1">
          <mxGeometry x="545" y="179.99999999999997" width="50" height="50" as="geometry" />
        </mxCell>
        <mxCell id="Tr4Er1pvrGNsC3kj4TbD-1" value="" style="rounded=0;whiteSpace=wrap;html=1;" vertex="1" parent="6wU86rSJ2iHSWhd7QMuM-1">
          <mxGeometry x="118.08000000000001" y="510" width="330" height="140" as="geometry" />
        </mxCell>
        <mxCell id="Tr4Er1pvrGNsC3kj4TbD-2" value="&amp;nbsp; &amp;nbsp; &amp;nbsp;Headscale&lt;div&gt;&amp;nbsp; &amp;nbsp; &amp;nbsp; &amp;nbsp; &amp;nbsp; &amp;nbsp;Subnet Router&lt;/div&gt;" style="sketch=0;points=[[0,0,0],[0.25,0,0],[0.5,0,0],[0.75,0,0],[1,0,0],[0,1,0],[0.25,1,0],[0.5,1,0],[0.75,1,0],[1,1,0],[0,0.25,0],[0,0.5,0],[0,0.75,0],[1,0.25,0],[1,0.5,0],[1,0.75,0]];outlineConnect=0;fontColor=#232F3E;fillColor=#ED7100;strokeColor=#ffffff;dashed=0;verticalLabelPosition=bottom;verticalAlign=top;align=center;html=1;fontSize=12;fontStyle=0;aspect=fixed;shape=mxgraph.aws4.resourceIcon;resIcon=mxgraph.aws4.ec2;" vertex="1" parent="6wU86rSJ2iHSWhd7QMuM-1">
          <mxGeometry x="118.08000000000001" y="510" width="50" height="50" as="geometry" />
        </mxCell>
        <mxCell id="Tr4Er1pvrGNsC3kj4TbD-3" value="DERP&lt;div&gt;server&lt;/div&gt;" style="rounded=0;whiteSpace=wrap;html=1;fillColor=#99CCFF;" vertex="1" parent="6wU86rSJ2iHSWhd7QMuM-1">
          <mxGeometry x="260" y="555" width="108" height="50" as="geometry" />
        </mxCell>
      </root>
    </mxGraphModel>
  </diagram>
</mxfile>
